<svg width="35" height="35" viewBox="0 0 35 35" fill="none" xmlns="http://www.w3.org/2000/svg">
<g id="iconamoon:comment">
<path id="Vector" d="M17.5 30.625C20.0959 30.625 22.6335 29.8552 24.7919 28.413C26.9503 26.9709 28.6325 24.921 29.6259 22.5227C30.6193 20.1244 30.8792 17.4854 30.3728 14.9394C29.8664 12.3934 28.6163 10.0548 26.7808 8.21923C24.9452 6.38366 22.6066 5.13363 20.0606 4.6272C17.5146 4.12077 14.8756 4.38069 12.4773 5.37409C10.079 6.36749 8.02916 8.04975 6.58696 10.2081C5.14477 12.3665 4.375 14.9041 4.375 17.5C4.375 19.67 4.9 21.716 5.83333 23.5185L4.375 30.625L11.4815 29.1667C13.284 30.1 15.3315 30.625 17.5 30.625Z" stroke="#666666" stroke-width="2" stroke-linecap="round" stroke-linejoin="round"/>
</g>
</svg>
