<svg width="35" height="35" viewBox="0 0 35 35" fill="none" xmlns="http://www.w3.org/2000/svg">
<g id="octicon:book-24">
<path id="Vector" d="M0 5.46875C0 5.17867 0.115234 4.90047 0.320352 4.69535C0.52547 4.49024 0.803669 4.375 1.09375 4.375H12.0269C14.3106 4.375 16.3217 5.54167 17.4971 7.31209C18.0953 6.40836 18.9082 5.66705 19.863 5.15449C20.8179 4.64193 21.885 4.37411 22.9688 4.375H33.9063C34.1963 4.375 34.4745 4.49024 34.6796 4.69535C34.8848 4.90047 35 5.17867 35 5.46875V27.4356C34.9996 27.5798 34.9708 27.7224 34.9153 27.8554C34.8597 27.9884 34.7785 28.1092 34.6762 28.2108C34.574 28.3123 34.4527 28.3928 34.3193 28.4474C34.1859 28.5021 34.0431 28.53 33.899 28.5294L22.696 28.4535C22.1165 28.4494 21.5419 28.5605 21.0057 28.7803C20.4694 29.0001 19.9822 29.3243 19.5723 29.734L18.2744 31.0333C18.1728 31.135 18.0522 31.2156 17.9195 31.2706C17.7867 31.3256 17.6444 31.3539 17.5007 31.3539C17.357 31.3539 17.2148 31.3256 17.082 31.2706C16.9493 31.2156 16.8287 31.135 16.7271 31.0333L15.4117 29.7194C15.0057 29.3128 14.5235 28.9904 13.9928 28.7704C13.462 28.5504 12.8931 28.4373 12.3185 28.4375H1.09375C0.803669 28.4375 0.52547 28.3223 0.320352 28.1172C0.115234 27.912 0 27.6338 0 27.3438L0 5.46875ZM18.5938 27.6821C19.7651 26.7557 21.2172 26.2562 22.7106 26.266L32.8125 26.3346V6.5625H22.9688C21.8084 6.5625 20.6956 7.02344 19.8752 7.84391C19.0547 8.66438 18.5938 9.77718 18.5938 10.9375V27.6821ZM16.4019 10.9331C16.4007 9.77356 15.9393 8.66189 15.1189 7.84236C14.2986 7.02284 13.1864 6.5625 12.0269 6.5625H2.1875V26.25H12.3185C13.8031 26.25 15.244 26.7546 16.4063 27.6792L16.4019 10.9331Z" fill="#666666"/>
</g>
</svg>
