<svg width="35" height="35" viewBox="0 0 35 35" fill="none" xmlns="http://www.w3.org/2000/svg">
<g id="ph:heart-fill">
<path id="Vector" d="M32.8125 12.8516C32.8125 22.4219 18.6225 30.1684 18.0182 30.4883C17.8589 30.574 17.6809 30.6188 17.5 30.6188C17.3191 30.6188 17.1411 30.574 16.9818 30.4883C16.3775 30.1684 2.1875 22.4219 2.1875 12.8516C2.19003 10.6042 3.08391 8.44964 4.67303 6.86053C6.26214 5.27141 8.41672 4.37753 10.6641 4.375C13.4873 4.375 15.9592 5.58906 17.5 7.64121C19.0408 5.58906 21.5127 4.375 24.3359 4.375C26.5833 4.37753 28.7379 5.27141 30.327 6.86053C31.9161 8.44964 32.81 10.6042 32.8125 12.8516Z" fill="#FF0C0C"/>
</g>
</svg>
